<?xml version="1.0" encoding="utf-8"?>
<!-- Uploaded to: SVG Repo, www.svgrepo.com, Generator: SVG Repo Mixer Tools -->
<svg fill="#000000" version="1.1" id="Layer_1" xmlns="http://www.w3.org/2000/svg" xmlns:xlink="http://www.w3.org/1999/xlink" 
	 width="800px" height="800px" viewBox="0 0 256 241" enable-background="new 0 0 256 241" xml:space="preserve">
<path d="M254,188V2H2v186h111v29H75v22h106v-22h-38v-29H254z M19,19h217v151H19L19,19z M128.049,103.364l-2.077-0.791L92.391,90.011
	v30.762c0,6.627,15.925,12.018,35.609,12.018s35.609-5.391,35.609-12.018V90.011l-33.482,12.562L128.049,103.364z M80.472,79.18
	v38.23c2.374,1.088,4.006,3.511,4.006,6.33v16.815H70.63V123.74c0-2.77,1.632-5.193,3.957-6.281V77.004l-9.891-3.709l63.354-23.739
	l63.255,23.739l-63.255,23.739L80.472,79.18z"/>
</svg>